<svg width="188" height="69" viewBox="0 0 188 69" fill="none" xmlns="http://www.w3.org/2000/svg">
<path fill-rule="evenodd" clip-rule="evenodd" d="M75.8937 0.899805C75.8638 0.865908 75.8326 0.832558 75.7998 0.799805H75.9998V0.899805H75.8937ZM75.8937 0.899805H74.1998C73.0998 1.8998 72.5998 3.0998 72.3998 4.4998C72.1427 6.34266 71.9406 8.18552 71.7386 10.0284C71.4692 12.4855 71.1998 14.9427 70.7998 17.3998C70.4396 19.7272 70.0487 22.0623 69.6569 24.4029C68.6346 30.51 67.6059 36.6549 67.0998 42.7998C67.0998 43.4998 67.0998 44.0998 66.3998 44.3998C65.3292 44.9763 64.3942 45.7563 63.4831 46.5163C63.2879 46.6791 63.0939 46.841 62.8998 46.9998C62.3998 47.5998 61.6998 48.1998 60.6998 48.2998C60.6998 47.8215 60.6882 47.3665 60.6768 46.9229C60.6548 46.0681 60.634 45.2556 60.6998 44.3998C60.9498 41.8498 61.1748 39.2498 61.3998 36.6498C61.6248 34.0498 61.8498 31.4498 62.0998 28.8998C62.1998 27.5998 61.6998 27.0998 60.3998 26.9998C58.7998 26.8998 57.1998 26.8998 55.4998 27.0998C54.5998 27.1998 53.9998 27.6998 53.8998 28.6998C53.6998 30.6331 53.4109 32.5665 53.1221 34.4998C52.9776 35.4665 52.8332 36.4331 52.6998 37.3998C52.2998 40.7498 51.8748 44.0748 51.4498 47.3998C51.0248 50.7248 50.5998 54.0498 50.1998 57.3998C50.0998 58.7998 50.7998 59.7998 52.1998 59.5998C55.1998 59.0998 58.1998 58.4998 60.5998 56.6998C62.6998 54.9998 64.5998 53.1998 66.4998 51.1998C66.6571 51.9469 66.6443 52.7094 66.6317 53.4631C66.6122 54.6262 66.593 55.7682 67.1998 56.7998C67.2253 56.8354 67.2507 56.8713 67.2763 56.9073C67.7518 57.5779 68.2457 58.2743 69.0998 57.7998C69.7798 57.4398 70.4278 57.0158 71.0758 56.5918C72.0478 55.9558 73.0198 55.3198 74.0998 54.8998C74.4907 54.6653 74.4538 54.3085 74.4191 53.9729C74.4094 53.8792 74.3998 53.7871 74.3998 53.6998C74.5998 51.9998 74.8998 50.3998 75.6998 48.7998C76.6998 49.3998 77.3998 50.2998 77.8998 51.1998C78.8998 52.9998 79.8748 54.7748 80.8498 56.5498C81.8248 58.3248 82.7998 60.0998 83.7998 61.8998C84.6998 63.6998 85.2998 63.9998 87.1998 63.3998C91.2998 61.8998 94.9998 59.6998 98.4998 57.3998C99.7998 56.4998 100.4 55.2998 100.6 53.7998L100.6 53.7997C100.8 51.6997 101 49.5998 101.5 47.4998C103.1 39.6998 105.2 31.9998 107.7 24.4998C107.748 24.3425 107.795 24.1836 107.843 24.0232C108.187 22.858 108.557 21.6061 109.7 20.1998V22.4998C109.7 25.6628 109.689 28.8368 109.678 32.0146C109.655 38.3813 109.633 44.7628 109.7 51.0998C109.7 53.5819 109.974 56.201 110.238 58.7304C110.293 59.2581 110.348 59.7819 110.4 60.2998C110.4 61.5998 111 62.0998 112.4 61.4998C113.9 60.8998 115.4 60.3998 116.9 59.9998C118 59.5998 118.6 58.9998 118.5 57.7998C118.4 56.4998 118.4 55.1998 118.7 53.8998C118.812 53.323 118.925 52.7481 119.037 52.1747C119.723 48.6723 120.398 45.223 121 41.6998C121.6 38.3998 122.9 35.0998 124.3 31.9998C124.5 32.8998 124.5 33.7998 124.5 34.5998C124.474 35.2627 124.447 35.9249 124.421 36.5865C124.139 43.6092 123.86 50.5627 124.5 57.5998C124.518 57.8401 124.53 58.0872 124.542 58.3368C124.594 59.4373 124.648 60.5846 125.3 61.3998C126.3 62.7998 129 63.4998 130.3 62.9998C131.9 62.3998 132.6 60.9998 132.3 58.7998C132.293 58.7639 132.285 58.727 132.277 58.6894C132.176 58.2029 132.05 57.5998 132.7 57.5998C134.253 57.6619 135.382 56.9906 136.493 56.3294C137.171 55.9263 137.842 55.527 138.6 55.2998C139.9 54.9998 141.1 54.0998 141.8 53.0998C143.037 51.5528 144.215 49.8861 145.379 48.2387C145.72 47.7562 146.06 47.2755 146.4 46.7998C146.57 46.5959 146.693 46.3343 146.826 46.0542C147.083 45.5099 147.374 44.8959 148.1 44.4998C147.7 48.6998 147.7 52.5998 147.7 56.5998C147.7 57.3998 147.8 58.2998 148.2 59.0998C148.2 59.3998 148.4 59.7998 148.9 59.8998C150.1 60.0998 152.9 58.9998 153.4 57.7998C153.8 56.6998 154.2 55.5998 154.4 54.3998C154.9 50.8998 155.2 47.4998 155.3 43.9998C155.4 40.2998 155.7 36.6998 156.3 32.9998C156.7 30.2998 156.1 29.5998 153.2 29.4998H151.8C150.1 29.2998 148.8 29.5998 148.8 31.5998C148.7 32.2998 148.4 32.9998 148 33.5998L144.1 40.7998C144.004 40.9786 143.907 41.1573 143.811 41.3357C141.815 45.0477 139.871 48.6603 137.2 51.9998C137.11 52.1081 137.019 52.2262 136.928 52.3459C136.513 52.8889 136.073 53.4637 135.5 53.2998C134.773 53.1383 134.829 52.3901 134.877 51.7394C134.889 51.5843 134.9 51.4346 134.9 51.2998C134.8 50.6998 134.8 50.1998 135 49.6998C136.9 43.2998 139.4 37.2998 143.8 31.9998C143.893 31.8834 143.986 31.7663 144.078 31.6494C145.177 30.2593 146.271 28.8765 148.3 28.5998C148.378 28.5842 148.461 28.571 148.546 28.5576C149.002 28.4851 149.5 28.406 149.5 27.8998C149.5 27.1998 148.9 26.9998 148.3 26.8998C145.8 26.1998 143.2 26.2998 141.2 27.7998C138 29.9998 135.4 32.6998 133.4 35.7998C133.357 35.8647 133.318 35.9437 133.277 36.0275C133.128 36.3314 132.948 36.6998 132.4 36.6998C132.4 35.0198 132.371 33.3398 132.343 31.6598C132.265 27.0398 132.187 22.4198 132.7 17.7998C133 15.1998 132.4 13.8998 129.2 13.0998C128.95 13.0498 128.7 12.9748 128.45 12.8998C128.2 12.8248 127.95 12.7498 127.7 12.6998C125.7 12.1998 124.8 12.4998 124.1 14.3998C123.893 14.9104 123.688 15.4171 123.484 15.9211C122.21 19.0695 120.979 22.1104 119.6 25.2998C119.475 25.5914 119.359 25.883 119.242 26.1756C118.798 27.2874 118.35 28.4123 117.4 29.5998V27.5998C117.4 25.9552 117.411 24.3331 117.422 22.7223C117.444 19.5336 117.466 16.3888 117.4 13.1998C117.3 10.3998 116.6 9.5998 112.7 8.5998C111 8.1998 109 8.9998 107.7 10.7998C106.292 12.8 105.269 14.9647 104.264 17.0909C103.912 17.8348 103.563 18.574 103.2 19.2998C102.136 21.6399 101.299 24.0082 100.462 26.3748C99.7254 28.458 98.9893 30.5399 98.0998 32.5998C95.2998 39.0998 92.9998 45.6998 91.6998 52.5998C91.4465 53.613 91.2333 54.6262 91.0095 55.6901C90.8798 56.3064 90.7465 56.9396 90.5998 57.5998C90.4852 57.5234 90.3852 57.4616 90.2998 57.4088C90.1616 57.3234 90.0616 57.2616 89.9998 57.1998C89.1682 55.9524 88.3719 54.6697 87.5716 53.3805C85.6772 50.3291 83.7603 47.2415 81.2998 44.4998C80.6998 43.6998 81.0998 43.3998 81.7998 43.1998C84.1998 42.3998 86.4998 41.4998 88.6998 40.1998C92.7998 37.6998 94.6998 34.1998 95.6998 30.1998C96.7998 25.9998 94.1998 23.2998 89.2998 23.8998C85.0998 24.4998 81.9998 26.9998 79.4998 30.0998C77.8998 32.0998 76.3998 34.1998 74.9998 36.6998C74.9631 36.6081 74.9298 36.5264 74.8998 36.453C74.7665 36.1264 74.6998 35.9631 74.6998 35.7998C75.1742 32.0047 75.3986 28.2095 75.62 24.4638C75.6786 23.472 75.737 22.4837 75.7998 21.4998C75.8704 20.088 76.0157 18.6763 76.1611 17.2645C76.4275 14.6763 76.6939 12.088 76.4998 9.4998C76.2998 7.2998 76.0998 5.0998 76.4998 2.8998C76.4998 2.23802 76.4104 1.48685 75.8937 0.899805ZM84.1998 36.2998C82.9998 37.7998 80.9998 38.7998 78.9998 39.4998C80.0998 35.4998 82.4998 32.5998 85.1998 29.9998C85.4998 29.6998 85.7998 29.4998 86.2998 29.5998C86.8998 29.6998 86.8998 30.1998 86.8998 30.5998C86.991 32.6967 85.7522 34.2949 84.5476 35.8491C84.431 35.9996 84.3146 36.1497 84.1998 36.2998Z" fill="white"/>
<path d="M0 32.1997C0.7 29.9997 0.3 27.5997 0.7 25.3997C0.9 24.1997 0.4 22.7997 2 21.9997C3.9 21.1997 5.8 21.1997 7.9 21.5997C8.6 21.6997 8.6 22.3997 8.6 22.9997C9.2 25.6997 8.8 28.5997 8.7 31.2997C9.4 28.5997 10.6 25.9997 11.8 23.3997C13.7 19.1997 15.8 15.0997 18.4 11.1997C20.8 7.59967 25.3 7.69967 28.3 9.69967C29.2 10.2997 29.6 11.1997 29.7 12.1997C30.3 16.8997 29.6 21.6997 29.7 26.4997C29.7 27.0997 29.7 27.7997 29.7 28.6997C30.7 27.6997 31.1 26.5997 31.6 25.6997C33.5 21.7997 35.2 17.7997 37 13.9997C37.7 12.4997 39 11.8997 40.7 12.2997C41.9 12.5997 43.1 12.8997 44.4 13.1997C46.3 13.5997 46.9 14.7997 46.8 16.3997C46.7 18.2997 46.5 20.1997 46.5 22.0997C46.4 28.2997 46.3 34.5997 46.1 40.7997C45.9 45.5997 45.5 50.3997 46.1 55.2997C46.2 55.8997 46.1 56.4997 46.2 57.0997C46.5 59.2997 46.1 59.8997 43.8 60.4997C40.8 61.1997 38 59.4997 37.7 56.5997C36.7 48.6997 37.1 40.7997 37.7 32.8997C37.7 32.1997 37.7 31.4997 37.7 30.2997C36.5 32.0997 36 33.7997 35.4 35.2997C33.2 40.4997 33 46.1997 31.3 51.4997C30.9 52.8997 31 54.2997 31.1 55.6997C31.2 56.9997 30.6 57.5997 29.3 57.8997C27.5 58.2997 25.8 58.7997 24.1 59.4997C22.6 59.9997 22.1 59.4997 22 58.1997C21.7 55.3997 21.3 52.5997 21.3 49.7997C21 40.4997 21.2 30.9997 21.3 21.6997C21.3 21.0997 21.3 20.4997 21.3 19.6997C20.1 20.5997 19.8 21.7997 19.3 22.7997C16.2 30.4997 13.9 38.2997 12 46.2997C11.4 48.4997 11.4 50.7997 10.8 52.9997C10.6 53.5997 10.3 54.1997 9.8 54.4997C7.7 55.7997 5.5 56.9997 3.3 58.2997C1.3 59.2997 1.3 59.2997 0.2 57.4997L0 32.1997V32.1997Z" fill="white"/>
<path fill-rule="evenodd" clip-rule="evenodd" d="M170.8 30.0994C169.1 32.0994 167.5 34.1994 165.9 36.3994C165.9 36.3029 165.89 36.196 165.879 36.0854C165.856 35.8523 165.832 35.6029 165.9 35.3994C166 34.2994 166.1 33.1882 166.2 32.077C166.4 29.8549 166.6 27.6327 166.8 25.4994C166.848 24.9387 166.896 24.3799 166.944 23.8225C167.404 18.5143 167.853 13.3387 167.4 7.99941C167.3 6.69941 166.6 6.49941 165.5 6.69941C164.4 6.89941 163.8 7.69941 163.5 8.59941C163.2 9.49941 162.9 10.4994 162.8 11.3994C162.343 16.4311 161.362 21.4628 160.39 26.4502C160.087 28.0047 159.785 29.5549 159.5 31.0994C158 38.9994 157.1 46.7994 157.3 54.7994C157.3 55.7994 157.7 56.8994 158.8 57.4994C159.607 57.8581 160.253 57.4127 160.811 57.0285C160.875 56.9842 160.938 56.9407 161 56.8994C162 55.9994 163.2 55.4994 164.4 54.9994L164.4 54.9994C165.1 54.6994 165.5 54.1994 165.5 53.3994C165.4 51.6994 165.9 50.1994 166.6 48.4994C168.617 49.7829 169.541 51.6547 170.452 53.4985C170.534 53.6659 170.617 53.833 170.7 53.9994C170.995 54.5516 171.288 55.1069 171.581 55.6635C173.681 59.6424 175.817 63.6903 178.8 67.1994C179.8 68.2994 180.9 68.6994 182.3 68.1994C183.088 67.9742 183.845 67.6222 184.606 67.2683C185.196 66.9936 185.788 66.7179 186.4 66.4994C187.5 65.9994 187.4 65.5994 186.6 64.9994C184 62.8994 182.4 59.9994 181.1 57.1994C178.9 52.6994 176.4 48.3994 173 44.5994C172.3 43.6994 172.5 43.3994 173.4 42.9994L173.4 42.9993C175.4 42.0993 177.4 41.1994 179.4 40.1994C183.4 37.9994 185.3 34.4994 186.7 30.5994C187.8 27.4994 185.9 24.8994 182.9 24.4994C177.5 23.7994 173.9 26.4994 170.8 30.0994ZM180.5 29.5994C179.1 33.6994 176.7 37.1994 172 39.4994C173.9 35.2994 176.4 31.8994 179.2 28.7994C179.3 28.7244 179.394 28.6307 179.488 28.5369C179.769 28.2557 180.05 27.9744 180.5 28.1994C181.024 28.6359 180.786 29.0725 180.583 29.4425C180.554 29.4963 180.526 29.5486 180.5 29.5994Z" fill="white"/>
<path d="M59.3996 10.9994C60.5996 10.8994 61.8996 11.1994 63.1996 11.3994C64.0996 11.4994 64.5996 11.8994 64.2996 12.9994C63.6996 14.7994 63.4996 16.6994 62.8996 18.5994C62.2996 20.4994 58.2996 22.3994 56.2996 21.9994C55.5996 21.8994 55.4996 21.3994 55.3996 20.9994C55.0996 19.7994 54.7996 18.6994 55.1996 17.3994C55.4996 16.3994 55.5996 15.1994 55.7996 13.9994C56.1996 11.0994 56.2996 10.9994 59.3996 10.9994" fill="white"/>
<path fill-rule="evenodd" clip-rule="evenodd" d="M75.8937 0.899805C75.8638 0.865908 75.8326 0.832558 75.7998 0.799805H75.9998V0.899805H75.8937ZM75.8937 0.899805H74.1998C73.0998 1.8998 72.5998 3.0998 72.3998 4.4998C72.1427 6.34266 71.9406 8.18552 71.7386 10.0284C71.4692 12.4855 71.1998 14.9427 70.7998 17.3998C70.4396 19.7272 70.0487 22.0623 69.6569 24.4029C68.6346 30.51 67.6059 36.6549 67.0998 42.7998C67.0998 43.4998 67.0998 44.0998 66.3998 44.3998C65.3292 44.9763 64.3942 45.7563 63.4831 46.5163C63.2879 46.6791 63.0939 46.841 62.8998 46.9998C62.3998 47.5998 61.6998 48.1998 60.6998 48.2998C60.6998 47.8215 60.6882 47.3665 60.6768 46.9229C60.6548 46.0681 60.634 45.2556 60.6998 44.3998C60.9498 41.8498 61.1748 39.2498 61.3998 36.6498C61.6248 34.0498 61.8498 31.4498 62.0998 28.8998C62.1998 27.5998 61.6998 27.0998 60.3998 26.9998C58.7998 26.8998 57.1998 26.8998 55.4998 27.0998C54.5998 27.1998 53.9998 27.6998 53.8998 28.6998C53.6998 30.6331 53.4109 32.5665 53.1221 34.4998C52.9776 35.4665 52.8332 36.4331 52.6998 37.3998C52.2998 40.7498 51.8748 44.0748 51.4498 47.3998C51.0248 50.7248 50.5998 54.0498 50.1998 57.3998C50.0998 58.7998 50.7998 59.7998 52.1998 59.5998C55.1998 59.0998 58.1998 58.4998 60.5998 56.6998C62.6998 54.9998 64.5998 53.1998 66.4998 51.1998C66.6571 51.9469 66.6443 52.7094 66.6317 53.4631C66.6122 54.6262 66.593 55.7682 67.1998 56.7998C67.2253 56.8354 67.2507 56.8713 67.2763 56.9073C67.7518 57.5779 68.2457 58.2743 69.0998 57.7998C69.7798 57.4398 70.4278 57.0158 71.0758 56.5918C72.0478 55.9558 73.0198 55.3198 74.0998 54.8998C74.4907 54.6653 74.4538 54.3085 74.4191 53.9729C74.4094 53.8792 74.3998 53.7871 74.3998 53.6998C74.5998 51.9998 74.8998 50.3998 75.6998 48.7998C76.6998 49.3998 77.3998 50.2998 77.8998 51.1998C78.8998 52.9998 79.8748 54.7748 80.8498 56.5498C81.8248 58.3248 82.7998 60.0998 83.7998 61.8998C84.6998 63.6998 85.2998 63.9998 87.1998 63.3998C91.2998 61.8998 94.9998 59.6998 98.4998 57.3998C99.7998 56.4998 100.4 55.2998 100.6 53.7998L100.6 53.7997C100.8 51.6997 101 49.5998 101.5 47.4998C103.1 39.6998 105.2 31.9998 107.7 24.4998C107.748 24.3425 107.795 24.1836 107.843 24.0232C108.187 22.858 108.557 21.6061 109.7 20.1998V22.4998C109.7 25.6628 109.689 28.8368 109.678 32.0146C109.655 38.3813 109.633 44.7628 109.7 51.0998C109.7 53.5819 109.974 56.201 110.238 58.7304C110.293 59.2581 110.348 59.7819 110.4 60.2998C110.4 61.5998 111 62.0998 112.4 61.4998C113.9 60.8998 115.4 60.3998 116.9 59.9998C118 59.5998 118.6 58.9998 118.5 57.7998C118.4 56.4998 118.4 55.1998 118.7 53.8998C118.812 53.323 118.925 52.7481 119.037 52.1747C119.723 48.6723 120.398 45.223 121 41.6998C121.6 38.3998 122.9 35.0998 124.3 31.9998C124.5 32.8998 124.5 33.7998 124.5 34.5998C124.474 35.2627 124.447 35.9249 124.421 36.5865C124.139 43.6092 123.86 50.5627 124.5 57.5998C124.518 57.8401 124.53 58.0872 124.542 58.3368C124.594 59.4373 124.648 60.5846 125.3 61.3998C126.3 62.7998 129 63.4998 130.3 62.9998C131.9 62.3998 132.6 60.9998 132.3 58.7998C132.293 58.7639 132.285 58.727 132.277 58.6894C132.176 58.2029 132.05 57.5998 132.7 57.5998C134.253 57.6619 135.382 56.9906 136.493 56.3294C137.171 55.9263 137.842 55.527 138.6 55.2998C139.9 54.9998 141.1 54.0998 141.8 53.0998C143.037 51.5528 144.215 49.8861 145.379 48.2387C145.72 47.7562 146.06 47.2755 146.4 46.7998C146.57 46.5959 146.693 46.3343 146.826 46.0542C147.083 45.5099 147.374 44.8959 148.1 44.4998C147.7 48.6998 147.7 52.5998 147.7 56.5998C147.7 57.3998 147.8 58.2998 148.2 59.0998C148.2 59.3998 148.4 59.7998 148.9 59.8998C150.1 60.0998 152.9 58.9998 153.4 57.7998C153.8 56.6998 154.2 55.5998 154.4 54.3998C154.9 50.8998 155.2 47.4998 155.3 43.9998C155.4 40.2998 155.7 36.6998 156.3 32.9998C156.7 30.2998 156.1 29.5998 153.2 29.4998H151.8C150.1 29.2998 148.8 29.5998 148.8 31.5998C148.7 32.2998 148.4 32.9998 148 33.5998L144.1 40.7998C144.004 40.9786 143.907 41.1573 143.811 41.3357C141.815 45.0477 139.871 48.6603 137.2 51.9998C137.11 52.1081 137.019 52.2262 136.928 52.3459C136.513 52.8889 136.073 53.4637 135.5 53.2998C134.773 53.1383 134.829 52.3901 134.877 51.7394C134.889 51.5843 134.9 51.4346 134.9 51.2998C134.8 50.6998 134.8 50.1998 135 49.6998C136.9 43.2998 139.4 37.2998 143.8 31.9998C143.893 31.8834 143.986 31.7663 144.078 31.6494C145.177 30.2593 146.271 28.8765 148.3 28.5998C148.378 28.5842 148.461 28.571 148.546 28.5576C149.002 28.4851 149.5 28.406 149.5 27.8998C149.5 27.1998 148.9 26.9998 148.3 26.8998C145.8 26.1998 143.2 26.2998 141.2 27.7998C138 29.9998 135.4 32.6998 133.4 35.7998C133.357 35.8647 133.318 35.9437 133.277 36.0275C133.128 36.3314 132.948 36.6998 132.4 36.6998C132.4 35.0198 132.371 33.3398 132.343 31.6598C132.265 27.0398 132.187 22.4198 132.7 17.7998C133 15.1998 132.4 13.8998 129.2 13.0998C128.95 13.0498 128.7 12.9748 128.45 12.8998C128.2 12.8248 127.95 12.7498 127.7 12.6998C125.7 12.1998 124.8 12.4998 124.1 14.3998C123.893 14.9104 123.688 15.4171 123.484 15.9211C122.21 19.0695 120.979 22.1104 119.6 25.2998C119.475 25.5914 119.359 25.883 119.242 26.1756C118.798 27.2874 118.35 28.4123 117.4 29.5998V27.5998C117.4 25.9552 117.411 24.3331 117.422 22.7223C117.444 19.5336 117.466 16.3888 117.4 13.1998C117.3 10.3998 116.6 9.5998 112.7 8.5998C111 8.1998 109 8.9998 107.7 10.7998C106.292 12.8 105.269 14.9647 104.264 17.0909C103.912 17.8348 103.563 18.574 103.2 19.2998C102.136 21.6399 101.299 24.0082 100.462 26.3748C99.7254 28.458 98.9893 30.5399 98.0998 32.5998C95.2998 39.0998 92.9998 45.6998 91.6998 52.5998C91.4465 53.613 91.2333 54.6262 91.0095 55.6901C90.8798 56.3064 90.7465 56.9396 90.5998 57.5998C90.4852 57.5234 90.3852 57.4616 90.2998 57.4088C90.1616 57.3234 90.0616 57.2616 89.9998 57.1998C89.1682 55.9524 88.3719 54.6697 87.5716 53.3805C85.6772 50.3291 83.7603 47.2415 81.2998 44.4998C80.6998 43.6998 81.0998 43.3998 81.7998 43.1998C84.1998 42.3998 86.4998 41.4998 88.6998 40.1998C92.7998 37.6998 94.6998 34.1998 95.6998 30.1998C96.7998 25.9998 94.1998 23.2998 89.2998 23.8998C85.0998 24.4998 81.9998 26.9998 79.4998 30.0998C77.8998 32.0998 76.3998 34.1998 74.9998 36.6998C74.9631 36.6081 74.9298 36.5264 74.8998 36.453C74.7665 36.1264 74.6998 35.9631 74.6998 35.7998C75.1742 32.0047 75.3986 28.2095 75.62 24.4638C75.6786 23.472 75.737 22.4837 75.7998 21.4998C75.8704 20.088 76.0157 18.6763 76.1611 17.2645C76.4275 14.6763 76.6939 12.088 76.4998 9.4998C76.2998 7.2998 76.0998 5.0998 76.4998 2.8998C76.4998 2.23802 76.4104 1.48685 75.8937 0.899805ZM84.1998 36.2998C82.9998 37.7998 80.9998 38.7998 78.9998 39.4998C80.0998 35.4998 82.4998 32.5998 85.1998 29.9998C85.4998 29.6998 85.7998 29.4998 86.2998 29.5998C86.8998 29.6998 86.8998 30.1998 86.8998 30.5998C86.991 32.6967 85.7522 34.2949 84.5476 35.8491C84.431 35.9996 84.3146 36.1497 84.1998 36.2998Z" fill="white"/>
<path d="M0 32.1997C0.7 29.9997 0.3 27.5997 0.7 25.3997C0.9 24.1997 0.4 22.7997 2 21.9997C3.9 21.1997 5.8 21.1997 7.9 21.5997C8.6 21.6997 8.6 22.3997 8.6 22.9997C9.2 25.6997 8.8 28.5997 8.7 31.2997C9.4 28.5997 10.6 25.9997 11.8 23.3997C13.7 19.1997 15.8 15.0997 18.4 11.1997C20.8 7.59967 25.3 7.69967 28.3 9.69967C29.2 10.2997 29.6 11.1997 29.7 12.1997C30.3 16.8997 29.6 21.6997 29.7 26.4997C29.7 27.0997 29.7 27.7997 29.7 28.6997C30.7 27.6997 31.1 26.5997 31.6 25.6997C33.5 21.7997 35.2 17.7997 37 13.9997C37.7 12.4997 39 11.8997 40.7 12.2997C41.9 12.5997 43.1 12.8997 44.4 13.1997C46.3 13.5997 46.9 14.7997 46.8 16.3997C46.7 18.2997 46.5 20.1997 46.5 22.0997C46.4 28.2997 46.3 34.5997 46.1 40.7997C45.9 45.5997 45.5 50.3997 46.1 55.2997C46.2 55.8997 46.1 56.4997 46.2 57.0997C46.5 59.2997 46.1 59.8997 43.8 60.4997C40.8 61.1997 38 59.4997 37.7 56.5997C36.7 48.6997 37.1 40.7997 37.7 32.8997C37.7 32.1997 37.7 31.4997 37.7 30.2997C36.5 32.0997 36 33.7997 35.4 35.2997C33.2 40.4997 33 46.1997 31.3 51.4997C30.9 52.8997 31 54.2997 31.1 55.6997C31.2 56.9997 30.6 57.5997 29.3 57.8997C27.5 58.2997 25.8 58.7997 24.1 59.4997C22.6 59.9997 22.1 59.4997 22 58.1997C21.7 55.3997 21.3 52.5997 21.3 49.7997C21 40.4997 21.2 30.9997 21.3 21.6997C21.3 21.0997 21.3 20.4997 21.3 19.6997C20.1 20.5997 19.8 21.7997 19.3 22.7997C16.2 30.4997 13.9 38.2997 12 46.2997C11.4 48.4997 11.4 50.7997 10.8 52.9997C10.6 53.5997 10.3 54.1997 9.8 54.4997C7.7 55.7997 5.5 56.9997 3.3 58.2997C1.3 59.2997 1.3 59.2997 0.2 57.4997L0 32.1997V32.1997Z" fill="white"/>
<path fill-rule="evenodd" clip-rule="evenodd" d="M170.8 30.0994C169.1 32.0994 167.5 34.1994 165.9 36.3994C165.9 36.3029 165.89 36.196 165.879 36.0854C165.856 35.8523 165.832 35.6029 165.9 35.3994C166 34.2994 166.1 33.1882 166.2 32.077C166.4 29.8549 166.6 27.6327 166.8 25.4994C166.848 24.9387 166.896 24.3799 166.944 23.8225C167.404 18.5143 167.853 13.3387 167.4 7.99941C167.3 6.69941 166.6 6.49941 165.5 6.69941C164.4 6.89941 163.8 7.69941 163.5 8.59941C163.2 9.49941 162.9 10.4994 162.8 11.3994C162.343 16.4311 161.362 21.4628 160.39 26.4502C160.087 28.0047 159.785 29.5549 159.5 31.0994C158 38.9994 157.1 46.7994 157.3 54.7994C157.3 55.7994 157.7 56.8994 158.8 57.4994C159.607 57.8581 160.253 57.4127 160.811 57.0285C160.875 56.9842 160.938 56.9407 161 56.8994C162 55.9994 163.2 55.4994 164.4 54.9994L164.4 54.9994C165.1 54.6994 165.5 54.1994 165.5 53.3994C165.4 51.6994 165.9 50.1994 166.6 48.4994C168.617 49.7829 169.541 51.6547 170.452 53.4985C170.534 53.6659 170.617 53.833 170.7 53.9994C170.995 54.5516 171.288 55.1069 171.581 55.6635C173.681 59.6424 175.817 63.6903 178.8 67.1994C179.8 68.2994 180.9 68.6994 182.3 68.1994C183.088 67.9742 183.845 67.6222 184.606 67.2683C185.196 66.9936 185.788 66.7179 186.4 66.4994C187.5 65.9994 187.4 65.5994 186.6 64.9994C184 62.8994 182.4 59.9994 181.1 57.1994C178.9 52.6994 176.4 48.3994 173 44.5994C172.3 43.6994 172.5 43.3994 173.4 42.9994L173.4 42.9993C175.4 42.0993 177.4 41.1994 179.4 40.1994C183.4 37.9994 185.3 34.4994 186.7 30.5994C187.8 27.4994 185.9 24.8994 182.9 24.4994C177.5 23.7994 173.9 26.4994 170.8 30.0994ZM180.5 29.5994C179.1 33.6994 176.7 37.1994 172 39.4994C173.9 35.2994 176.4 31.8994 179.2 28.7994C179.3 28.7244 179.394 28.6307 179.488 28.5369C179.769 28.2557 180.05 27.9744 180.5 28.1994C181.024 28.6359 180.786 29.0725 180.583 29.4425C180.554 29.4963 180.526 29.5486 180.5 29.5994Z" fill="white"/>
<path d="M59.3996 10.9994C60.5996 10.8994 61.8996 11.1994 63.1996 11.3994C64.0996 11.4994 64.5996 11.8994 64.2996 12.9994C63.6996 14.7994 63.4996 16.6994 62.8996 18.5994C62.2996 20.4994 58.2996 22.3994 56.2996 21.9994C55.5996 21.8994 55.4996 21.3994 55.3996 20.9994C55.0996 19.7994 54.7996 18.6994 55.1996 17.3994C55.4996 16.3994 55.5996 15.1994 55.7996 13.9994C56.1996 11.0994 56.2996 10.9994 59.3996 10.9994" fill="white"/>
</svg>
